# ProBuilder 5.0.7
# https://unity3d.com/unity/features/worldbuilding/probuilder
# 13-08-2023 14:04:35

mtllib ./-.mtl
o -

g -
v -0.08661632 -7.003546E-07 -0.08041954
v -0.08661578 0.1341069 -0.08041913
v -0.06496318 -7.003546E-07 -0.01077498
v -0.06496169 0.1341071 -0.01077613
v -0.02165689 -7.003546E-07 -0.01077499
v -0.02165727 0.1341068 -0.01077613
v -3.743917E-06 -7.003546E-07 -0.08041955
v -3.171573E-06 0.1341069 -0.08041913
v -0.02165689 -7.003546E-07 -0.1500641
v -0.02165727 0.1341068 -0.1500655
v -0.06496317 -7.003546E-07 -0.1500641
v -0.06496169 0.1341071 -0.1500655
v -0.06982287 0.1355759 -0.08042254
v -0.06982139 0.1835102 -0.08042254
v -0.06154237 0.1355716 -0.05379243
v -0.06154089 0.1835058 -0.05379243
v -0.02510245 0.1355711 -0.05379243
v -0.02510097 0.1835053 -0.05379243
v -0.01682195 0.1355667 -0.08042254
v -0.01682047 0.183501 -0.08042254
v -0.02510233 0.1355703 -0.1070527
v -0.02510085 0.1835045 -0.1070527
v -0.06154248 0.1355723 -0.1070527
v -0.06154101 0.1835066 -0.1070527
v -0.08661576 0.1911461 -0.08041913
v -0.07405128 0.2481849 -0.08041913
v -0.06496167 0.1911463 -0.01077613
v -0.05867941 0.2481851 -0.03098463
v -0.02165725 0.191146 -0.01077613
v -0.02793942 0.2481851 -0.03098463
v -3.156363E-06 0.1911461 -0.08041913
v -0.01256755 0.2481854 -0.08041913
v -0.02165725 0.191146 -0.1500655
v -0.02793942 0.2481851 -0.129857
v -0.06496167 0.1911463 -0.1500655
v -0.05867941 0.2481851 -0.129857
v -0.04331003 -7.003546E-07 -0.08041954
v -0.0433113 0.2481848 -0.08041913

vt -0.1025091 -8.748355E-07
vt -0.1025086 0.1341067
vt -0.02957613 -8.748355E-07
vt -0.02957678 0.1341069
vt -0.06496318 -6.085408E-07
vt -0.06496169 0.1341071
vt -0.02165688 -6.085408E-07
vt -0.02165727 0.1341069
vt 0.003859431 -5.750954E-07
vt 0.003860401 0.1341069
vt 0.07679243 -5.750954E-07
vt 0.0767922 0.134107
vt 0.1497277 -6.251166E-07
vt 0.1497291 0.1341068
vt 0.02165689 9.17039E-07
vt 0.02165727 0.1341084
vt 0.06496317 9.17039E-07
vt 0.06496169 0.1341087
vt -0.1240109 -1.484556E-06
vt -0.1240128 0.1341063
vt -0.05107793 -1.484556E-06
vt -0.0510777 0.1341061
vt -0.09752757 0.1355746
vt -0.09752713 0.1835089
vt -0.06963976 0.1355703
vt -0.06963933 0.1835045
vt -0.06154237 0.1355716
vt -0.06154089 0.1835058
vt -0.02510245 0.1355711
vt -0.02510097 0.1835053
vt 0.04391302 0.1355699
vt 0.04391346 0.1835041
vt 0.07180083 0.1355656
vt 0.07180127 0.1834998
vt 0.08179047 0.135567
vt 0.08179003 0.1835012
vt 0.1096782 0.1355705
vt 0.1096778 0.1835047
vt 0.02510233 0.1355703
vt 0.02510085 0.1835045
vt 0.06154248 0.1355723
vt 0.06154101 0.1835066
vt -0.08395182 0.1355697
vt -0.08395226 0.1835039
vt -0.05606405 0.1355732
vt -0.05606449 0.1835075
vt -0.1025097 0.1749425
vt -0.09877916 0.2332295
vt -0.02957785 0.1749427
vt -0.04700981 0.23323
vt -0.06496165 0.1837713
vt -0.05867933 0.2442842
vt -0.02165723 0.183771
vt -0.02793935 0.2442842
vt 0.003859948 0.1919679
vt 0.02129192 0.2502555
vt 0.07679176 0.1919681
vt 0.07306127 0.2502555
vt 0.07679395 0.1821388
vt 0.08052427 0.2404263
vt 0.149729 0.1821387
vt 0.1322969 0.2404262
vt 0.0216576 0.1300576
vt 0.02793972 0.1905708
vt 0.06496202 0.1300579
vt 0.05867971 0.1905709
vt -0.1240123 0.1651109
vt -0.1065802 0.2233981
vt -0.05107724 0.1651107
vt -0.05480758 0.2233977
vt -0.08661632 -0.08041954
vt -0.04331003 -0.08041954
vt -0.06496318 -0.01077498
vt 0.07405213 -0.08041774
vt 0.04331214 -0.08041774
vt 0.05868025 -0.03098324
vt -0.02165689 -0.01077499
vt 0.02793966 -0.03098306
vt -3.743917E-06 -0.08041955
vt 0.01256286 -0.08041909
vt -0.02165689 -0.1500641
vt 0.02793473 -0.1298571
vt -0.06496317 -0.1500641
vt 0.05867965 -0.1298586
vt 0.06496257 -0.1454126
vt 0.02165815 -0.1454126
vt 0.06154337 -0.1023748
vt 0.02510322 -0.1023748
vt -0.0216585 -0.1811866
vt -0.06496292 -0.1811866
vt -0.02510205 -0.1375003
vt -0.06154221 -0.1375006
vt 0.07459892 -0.07656687
vt 0.0530272 -0.1462388
vt 0.05774188 -0.07657028
vt 0.04949331 -0.1032103
vt -0.1382789 -0.167619
vt -0.1579894 -0.0973978
vt -0.1320019 -0.1242511
vt -0.1395405 -0.09740162
vt 0.03320074 -0.1464619
vt 0.01162816 -0.07679021
vt 0.03675969 -0.1034334
vt 0.02851018 -0.07679372
vt 0.07910591 -0.101969
vt 0.05939331 -0.1721897
vt 0.06063241 -0.1019725
vt 0.05309593 -0.1288226
vt 0.01159905 -0.08398104
vt 0.03317203 -0.01431286
vt 0.02848106 -0.08398445
vt 0.03673092 -0.05734482
vt 0.05934356 0.01265259
vt 0.0790586 -0.05756397
vt 0.0530479 -0.03071798
vt 0.0605851 -0.05756794
vt 0.02165815 -0.01533222
vt 0.06496257 -0.01533222
vt 0.02510333 -0.05837344
vt 0.06154326 -0.05837344
vt -0.06496292 0.0228177
vt -0.0216585 0.0228177
vt -0.06154209 -0.02087187
vt -0.02510217 -0.02087191
vt 0.05306504 -0.01453194
vt 0.07463726 -0.08420034
vt 0.04953142 -0.05756393
vt 0.05778023 -0.08420388
vt -0.1579604 -0.06212737
vt -0.138248 0.008089946
vt -0.1395115 -0.06213081
vt -0.1319717 -0.03528158

vn -0.9549114 2.965593E-06 0.2968909
vn 1.720438E-07 8.521003E-06 1
vn 0.9549114 5.245488E-06 0.2968909
vn 0.9549114 -3.151688E-06 -0.296891
vn 0 -1.077802E-05 -1
vn -0.9549114 7.357399E-06 -0.296891
vn -0.9344569 0.2058417 0.2905501
vn 2.183368E-06 0.3339531 0.9425897
vn 0.9344534 0.2058582 0.2905499
vn 0.9344612 0.2058396 -0.2905382
vn 2.183362E-06 0.3339521 -0.9425901
vn -0.934458 0.2058563 -0.2905363
vn 0 -1 0
vn 3.393239E-06 1 -5.576629E-06
vn 6.534158E-06 0.9994202 -0.03404709
vn -6.437154E-06 -0.9845832 -0.1749169
vn -0.0871173 0.9958299 -0.02708391
vn -0.08683538 0.995855 -0.02706477
vn -0.41068 -0.9027944 -0.1276884
vn 0.08665313 0.9958742 -0.02694365
vn 0.08644736 0.9958973 -0.02674847
vn 0.4104812 -0.902894 -0.1276229
vn 0.4100265 -0.9031019 -0.1276142
vn 0.08643625 0.9958947 0.02687754
vn 0.08676954 0.9958651 0.02690006
vn 0.08710283 0.9958355 0.02692257
vn 0.4102394 -0.9030136 0.127554
vn 0.410335 -0.9029551 0.1276609
vn 6.534164E-06 0.9994211 0.03402018
vn -6.437196E-06 -0.9845896 0.1748809
vn -0.08684686 0.9958557 0.02700115
vn -0.08710596 0.9958264 0.02724676
vn -0.4104931 -0.9028866 0.1276365
vn -0.4107407 -0.9027733 0.1276414

usemtl ProBuilderDefault
f 1/71/13 37/72/13 3/73/13
f 3/73/13 37/72/13 5/77/13
f 5/77/13 37/72/13 7/79/13
f 7/79/13 37/72/13 9/81/13
f 9/81/13 37/72/13 11/83/13
f 11/83/13 37/72/13 1/71/13
f 28/76/14 38/75/14 26/74/14
f 30/78/14 38/75/14 28/76/14
f 32/80/14 38/75/14 30/78/14
f 34/82/14 38/75/14 32/80/14
f 36/84/14 38/75/14 34/82/14
f 26/74/14 38/75/14 36/84/14
f 4/4/1 2/2/1 1/1/1
f 1/1/1 3/3/1 4/4/1
f 6/8/2 4/6/2 3/5/2
f 3/5/2 5/7/2 6/8/2
f 8/12/3 6/10/3 5/9/3
f 5/9/3 7/11/3 8/12/3
f 10/14/4 8/12/4 7/11/4
f 7/11/4 9/13/4 10/14/4
f 12/18/5 10/16/5 9/15/5
f 9/15/5 11/17/5 12/18/5
f 2/22/6 12/20/6 11/19/6
f 11/19/6 1/21/6 2/22/6
f 16/26/1 14/24/1 13/23/1
f 13/23/1 15/25/1 16/26/1
f 18/30/2 16/28/2 15/27/2
f 15/27/2 17/29/2 18/30/2
f 20/34/3 18/32/3 17/31/3
f 17/31/3 19/33/3 20/34/3
f 22/38/4 20/36/4 19/35/4
f 19/35/4 21/37/4 22/38/4
f 24/42/5 22/40/5 21/39/5
f 21/39/5 23/41/5 24/42/5
f 14/46/6 24/44/6 23/43/6
f 23/43/6 13/45/6 14/46/6
f 28/50/7 26/48/7 25/47/7
f 25/47/7 27/49/7 28/50/7
f 30/54/8 28/52/8 27/51/8
f 27/51/8 29/53/8 30/54/8
f 32/58/9 30/56/9 29/55/9
f 29/55/9 31/57/9 32/58/9
f 34/62/10 32/60/10 31/59/10
f 31/59/10 33/61/10 34/62/10
f 36/66/11 34/64/11 33/63/11
f 33/63/11 35/65/11 36/66/11
f 26/70/12 36/68/12 35/67/12
f 35/67/12 25/69/12 26/70/12
f 21/88/15 10/86/15 12/85/15
f 12/85/15 23/87/15 21/88/15
f 24/92/16 35/90/16 33/89/16
f 33/89/16 22/91/16 24/92/16
f 23/96/18 12/94/18 2/93/17
f 2/93/17 13/95/18 23/96/18
f 14/100/19 25/98/19 35/97/19
f 35/97/19 24/99/19 14/100/19
f 19/104/21 8/102/20 10/101/20
f 10/101/20 21/103/20 19/104/21
f 22/108/23 33/106/22 31/105/22
f 31/105/22 20/107/22 22/108/23
f 17/112/26 6/110/25 8/109/24
f 8/109/24 19/111/25 17/112/26
f 20/116/28 31/114/28 29/113/27
f 29/113/27 18/115/28 20/116/28
f 15/120/29 4/118/29 6/117/29
f 6/117/29 17/119/29 15/120/29
f 18/124/30 29/122/30 27/121/30
f 27/121/30 16/123/30 18/124/30
f 13/128/32 2/126/31 4/125/31
f 4/125/31 15/127/31 13/128/32
f 16/132/34 27/130/34 25/129/33
f 25/129/33 14/131/34 16/132/34

