# ProBuilder 5.0.7
# https://unity3d.com/unity/features/worldbuilding/probuilder
# 13-08-2023 14:04:20

mtllib ./Analog.mtl
o Analog

g Analog
v 0.04453447 -1.205131E-06 -0.1031723
v -1.208484E-05 -1.205131E-06 -0.2503069
v 0.04453447 0.02952027 -0.1031723
v -1.208484E-05 0.02952027 -0.2503069
v 0.03998792 -1.205131E-06 -0.2503069
v 0.07765777 -1.205131E-06 -0.1255965
v 0.03998792 0.02952027 -0.2503069
v 0.07765777 0.02952027 -0.1255965
v 0.1611589 -1.205131E-06 -0.01223807
v 0.1611589 0.02952027 -0.01223807
v 0.1743292 -1.205131E-06 -0.05000767
v 0.1743292 0.02952027 -0.05000767
v 0.3053146 -1.205131E-06 -0.01223807
v 0.3053146 0.02952027 -0.01223807
v 0.2921443 -1.205131E-06 -0.05000767
v 0.2921443 0.02952027 -0.05000767
v 0.4219391 -1.205131E-06 -0.1031723
v 0.4219391 0.02952027 -0.1031723
v 0.3888158 -1.205131E-06 -0.1255966
v 0.3888158 0.02952027 -0.1255966
v 0.4664856 -1.205131E-06 -0.250307
v 0.4664856 0.02952027 -0.250307
v 0.4264856 -1.205131E-06 -0.250307
v 0.4264856 0.02952027 -0.250307
v 0.4219391 -1.205131E-06 -0.3974416
v 0.4219391 0.02952027 -0.3974416
v 0.3888158 -1.205131E-06 -0.3750173
v 0.3888158 0.02952027 -0.3750173
v 0.3053146 -1.205131E-06 -0.4883758
v 0.3053146 0.02952027 -0.4883758
v 0.2921444 -1.205131E-06 -0.4506062
v 0.2921444 0.02952027 -0.4506062
v 0.1611589 -1.205131E-06 -0.4883758
v 0.1611589 0.02952027 -0.4883758
v 0.1743292 -1.205131E-06 -0.4506062
v 0.1743292 0.02952027 -0.4506062
v 0.04453449 -1.205131E-06 -0.3974416
v 0.04453449 0.02952027 -0.3974416
v 0.07765779 -1.205131E-06 -0.3750173
v 0.07765779 0.02952027 -0.3750173

vt -0.08584099 -1.205131E-06
vt -0.2395713 -1.205131E-06
vt -0.08584099 0.02952027
vt -0.2395713 0.02952027
vt 0.2280516 -1.205131E-06
vt 0.09777617 -1.205131E-06
vt 0.2280516 0.02952027
vt 0.09777617 0.02952027
vt 0.1195664 -1.205131E-06
vt -0.02831966 -1.205131E-06
vt 0.1195664 0.02952027
vt -0.02831966 0.02952027
vt 0.01618717 -1.205131E-06
vt -0.1065281 -1.205131E-06
vt 0.01618717 0.02952027
vt -0.1065281 0.02952027
vt 0.3053146 -1.205131E-06
vt 0.1611589 -1.205131E-06
vt 0.3053146 0.02952027
vt 0.1611589 0.02952027
vt -0.1743292 -1.205131E-06
vt -0.2921443 -1.205131E-06
vt -0.1743292 0.02952027
vt -0.2921443 0.02952027
vt 0.3961854 -1.205131E-06
vt 0.2482993 -1.205131E-06
vt 0.3961854 0.02952027
vt 0.2482993 0.02952027
vt -0.2609457 -1.205131E-06
vt -0.383661 -1.205131E-06
vt -0.2609457 0.02952027
vt -0.383661 0.02952027
vt 0.3747417 -1.205131E-06
vt 0.2210114 -1.205131E-06
vt 0.3747417 0.02952027
vt 0.2210114 0.02952027
vt -0.2326595 -1.205131E-06
vt -0.3629349 -1.205131E-06
vt -0.2326595 0.02952027
vt -0.3629349 0.02952027
vt 0.2581241 -1.205131E-06
vt 0.1043939 -1.205131E-06
vt 0.2581241 0.02952027
vt 0.1043939 0.02952027
vt -0.1162938 -1.205131E-06
vt -0.2465692 -1.205131E-06
vt -0.1162938 0.02952027
vt -0.2465692 0.02952027
vt 0.059525 -1.205131E-06
vt -0.08836108 -1.205131E-06
vt 0.059525 0.02952027
vt -0.08836108 0.02952027
vt 0.07529818 -1.205131E-06
vt -0.04741707 -1.205131E-06
vt 0.07529818 0.02952027
vt -0.04741707 0.02952027
vt -0.1611589 -1.205131E-06
vt -0.3053146 -1.205131E-06
vt -0.1611589 0.02952027
vt -0.3053146 0.02952027
vt 0.2921444 -1.205131E-06
vt 0.1743292 -1.205131E-06
vt 0.2921444 0.02952027
vt 0.1743292 0.02952027
vt -0.2795047 -1.205131E-06
vt -0.4273907 -1.205131E-06
vt -0.2795047 0.02952027
vt -0.4273907 0.02952027
vt 0.4148909 -1.205131E-06
vt 0.4148909 0.02952027
vt -0.3932946 -1.205131E-06
vt -0.3932946 0.02952027
vt 0.3814526 -1.205131E-06
vt 0.2511771 -1.205131E-06
vt 0.3814526 0.02952027
vt 0.2511771 0.02952027
vt -1.208484E-05 -0.2503069
vt 0.04453447 -0.1031723
vt 0.03998792 -0.2503069
vt 0.07765777 -0.1255965
vt -0.04453447 -0.1031723
vt -0.07765777 -0.1255965
vt -0.03998792 -0.2503069
vt 0.1611589 -0.01223807
vt 0.1743292 -0.05000767
vt -0.1611589 -0.01223807
vt -0.1743292 -0.05000767
vt 0.3053146 -0.01223807
vt 0.2921443 -0.05000767
vt -0.3053146 -0.01223807
vt -0.2921443 -0.05000767
vt 0.4219391 -0.1031723
vt 0.3888158 -0.1255966
vt -0.4219391 -0.1031723
vt -0.3888158 -0.1255966
vt 0.4664856 -0.250307
vt 0.4264856 -0.250307
vt -0.4664856 -0.250307
vt -0.4264856 -0.250307
vt 0.4219391 -0.3974416
vt 0.3888158 -0.3750173
vt -0.4219391 -0.3974416
vt -0.3888158 -0.3750173
vt 0.3053146 -0.4883758
vt 0.2921444 -0.4506062
vt -0.3053146 -0.4883758
vt -0.2921444 -0.4506062
vt 0.1611589 -0.4883758
vt 0.1743292 -0.4506062
vt -0.1611589 -0.4883758
vt -0.1743292 -0.4506062
vt 0.04453449 -0.3974416
vt 0.07765779 -0.3750173
vt -0.04453449 -0.3974416
vt -0.07765779 -0.3750173

vn -0.957096 0 0.2897709
vn 0.9572822 0 -0.2891553
vn -0.6148937 0 0.78861
vn 0.6159695 0 -0.78777
vn 0 0 1
vn 0 0 -1
vn 0.6148936 0 0.78861
vn -0.6159695 0 -0.78777
vn 0.9570961 0 0.2897708
vn -0.9572822 0 -0.2891552
vn 0.957096 0 -0.2897709
vn -0.9572822 0 0.2891554
vn 0.6148937 0 -0.78861
vn -0.6159695 0 0.78777
vn -0.6148938 0 -0.7886099
vn 0.6159694 0 0.78777
vn -0.957096 0 -0.289771
vn 0.9572822 0 0.2891554
vn 0 -1 0
vn 0 1 0

usemtl ProBuilderDefault
f 3/3/1 4/4/1 2/2/1 1/1/1
f 7/7/2 8/8/2 6/6/2 5/5/2
f 10/11/3 3/12/3 1/10/3 9/9/3
f 8/15/4 12/16/4 11/14/4 6/13/4
f 14/19/5 10/20/5 9/18/5 13/17/5
f 12/23/6 16/24/6 15/22/6 11/21/6
f 18/27/7 14/28/7 13/26/7 17/25/7
f 16/31/8 20/32/8 19/30/8 15/29/8
f 22/35/9 18/36/9 17/34/9 21/33/9
f 20/39/10 24/40/10 23/38/10 19/37/10
f 26/43/11 22/44/11 21/42/11 25/41/11
f 24/47/12 28/48/12 27/46/12 23/45/12
f 30/51/13 26/52/13 25/50/13 29/49/13
f 28/55/14 32/56/14 31/54/14 27/53/14
f 34/59/6 30/60/6 29/58/6 33/57/6
f 32/63/5 36/64/5 35/62/5 31/61/5
f 38/67/15 34/68/15 33/66/15 37/65/15
f 36/70/16 40/63/16 39/61/16 35/69/16
f 4/4/17 38/72/17 37/71/17 2/2/17
f 40/75/18 7/76/18 5/74/18 39/73/18
f 5/79/19 6/80/19 1/78/19 2/77/19
f 8/82/20 7/83/20 4/77/20 3/81/20
f 6/80/19 11/85/19 9/84/19 1/78/19
f 12/87/20 8/82/20 3/81/20 10/86/20
f 11/85/19 15/89/19 13/88/19 9/84/19
f 16/91/20 12/87/20 10/86/20 14/90/20
f 15/89/19 19/93/19 17/92/19 13/88/19
f 20/95/20 16/91/20 14/90/20 18/94/20
f 19/93/19 23/97/19 21/96/19 17/92/19
f 24/99/20 20/95/20 18/94/20 22/98/20
f 23/97/19 27/101/19 25/100/19 21/96/19
f 28/103/20 24/99/20 22/98/20 26/102/20
f 27/101/19 31/105/19 29/104/19 25/100/19
f 32/107/20 28/103/20 26/102/20 30/106/20
f 31/105/19 35/109/19 33/108/19 29/104/19
f 36/111/20 32/107/20 30/106/20 34/110/20
f 35/109/19 39/113/19 37/112/19 33/108/19
f 40/115/20 36/111/20 34/110/20 38/114/20
f 39/113/19 5/79/19 2/77/19 37/112/19
f 7/83/20 40/115/20 38/114/20 4/77/20

