# ProBuilder 5.0.7
# https://unity3d.com/unity/features/worldbuilding/probuilder
# 13-08-2023 14:04:24

mtllib ./Digital.mtl
o Digital

g Digital
v 0.8250389 0.4112271 -0.6980972
v 0.8160744 0.4120162 -0.3011017
v 0.7131729 0.6571108 -0.7227001
v 0.7079887 0.657567 -0.2764988
v 0.8438492 0.358903 -0.7695332
v 0.8316307 0.358903 -0.2304668
v 0.8719864 0.3761698 -0.7693329
v 0.8597679 0.3761698 -0.2302666
v 0.6632576 0.6947694 -0.8029385
v 0.6913948 0.7120362 -0.8027382
v 0.656189 0.6947694 -0.1970615
v 0.6843262 0.7120362 -0.1968613
v 0.8562279 0.4043723 -0.7240677
v 0.8460617 0.4043723 -0.2755318
v 0.7059669 0.6838337 -0.7518635
v 0.7000847 0.6838337 -0.247736

vt 0.7158098 0.03744698
vt 0.3187132 0.0383145
vt 0.737983 0.307792
vt 0.2917741 0.3063427
vt 0.906951 -0.771084
vt 0.8965366 -0.2319798
vt 0.9399638 -0.7708837
vt 0.9295493 -0.2317795
vt -0.6212965 0.7528537
vt -0.8033611 0.4161223
vt -0.6494071 0.7701649
vt -0.8314716 0.4334336
vt 0.8403404 0.3425324
vt 0.6636819 0.6794208
vt 0.8684461 0.3598517
vt 0.6917875 0.69674
vt -0.9226559 -0.1955387
vt -0.9286808 -0.8014269
vt -0.9556687 -0.1953384
vt -0.9616936 -0.8012266
vt 0.7888947 -0.06205099
vt 0.2496899 -0.06205099
vt 0.743284 -0.03023405
vt 0.2946329 -0.03023421
vt 0.8111916 0.3035499
vt 0.7800128 -0.07797784
vt 0.7605003 0.2715132
vt 0.734557 -0.04594008
vt 0.2485523 -0.0606407
vt 0.2114126 0.317939
vt 0.2935149 -0.02885159
vt 0.2626118 0.2861494
vt 0.2048312 0.3041669
vt 0.8107494 0.3041669
vt 0.2558863 0.2721462
vt 0.7600481 0.2721459
vt -0.7471268 -0.7269411
vt -0.7372065 -0.2783997
vt -0.7151937 -0.7009703
vt -0.7062734 -0.3039738
vt 0.9099939 0.3681653
vt 0.9223588 0.04989376
vt 0.8837201 0.3377312
vt 0.8891513 0.06707933
vt -0.3983301 0.04849396
vt -0.3155532 0.3539912
vt -0.359066 0.05684998
vt -0.3006378 0.3195279
vt 0.2558873 0.4640939
vt 0.7600491 0.4640939
vt 0.2847404 0.4367587
vt 0.7309718 0.4363265

vn 0.9093045 0.4156644 0.01970684
vn 0.9124448 0.4088293 0.01496676
vn 0.9155852 0.4019941 0.01022668
vn 0.522935 -0.8522901 0.01185284
vn 0.05104553 -0.07162802 -0.9961244
vn 0.04067171 -0.07783073 0.9961366
vn -0.5229912 0.8523163 -0.006101624
vn 0.8861716 0.4629217 0.02008596
vn 0.8802532 0.4743804 0.01084087
vn 0.886973 0.4614334 0.01892271
vn 0.880698 0.4735669 0.01027491
vn 0.2185923 0.9758037 0.004954445
vn 0.2313621 0.9727696 0.004269927
vn 0.2441318 0.9697354 0.003585409
vn 0.8476566 0.4785508 0.2290575
vn 0.7450506 0.4192632 0.45279
vn 0.6424446 0.3599755 0.6765224
vn 0.6509799 0.4039625 -0.6426815
vn 0.777079 0.4070938 -0.3845559
vn 0.9031782 0.4102251 -0.1264302
vn 0.9608459 0.2768566 0.01121135
vn 0.9616231 0.2741362 0.01105773
vn 0.9624004 0.2714159 0.01090411

usemtl ProBuilderDefault
f 3/3/2 4/4/3 2/2/2 1/1/1
f 7/7/4 8/8/4 6/6/4 5/5/4
f 10/11/5 7/12/5 5/10/5 9/9/5
f 8/15/6 12/16/6 11/14/6 6/13/6
f 12/19/7 10/20/7 9/18/7 11/17/7
f 13/23/8 14/24/8 8/22/8 7/21/8
f 15/27/9 13/28/9 7/26/9 10/25/9
f 14/31/10 16/32/10 12/30/10 8/29/10
f 16/35/11 15/36/11 10/34/11 12/33/11
f 1/39/13 2/40/14 14/38/13 13/37/12
f 3/43/16 1/44/17 13/42/16 15/41/15
f 2/47/19 4/48/20 16/46/19 14/45/18
f 4/51/22 3/52/23 15/50/22 16/49/21

